<svg width="677" height="677" viewBox="0 0 677 677" fill="none" xmlns="http://www.w3.org/2000/svg">
<path d="M337.162 41C350.648 41.7206 349.479 46.8129 361.14 49.3899C366.935 50.6704 373.924 41.816 381.683 41.4168C391.205 40.9258 393.477 45.6136 401.936 45.845C405.161 45.9315 405.223 45.7177 408.148 47.0584C411.341 51.8644 410.112 88.6616 410.084 97.6749C433.543 99.4359 450.454 103.127 469.383 118.531C491.557 136.577 501.618 157.185 504.826 185.055C532.872 185.074 539.634 198.542 539.839 223.468L540.079 422.197L540.231 483.192C540.28 513.254 545.728 543.582 504.672 543.896C503.301 569.788 494.546 591.939 476.003 610.058C446.897 638.497 423.061 637.868 385.944 637.661C368.489 637.525 351.037 637.483 333.582 637.534L269.875 637.552C232.732 637.545 201.476 641.36 171.018 615.385C151.467 598.711 138.253 572.012 137.595 546.455C136.946 521.349 137.331 494.572 137.379 469.253L137.404 327.893L137.397 231.15C137.397 224.865 137.847 215.665 137.402 209.628C132.734 146.435 168.971 101.057 232.746 97.6731C232.746 87.252 230.639 50.4337 235.007 43.9674C249.883 35.2754 260.47 49.1355 270.962 49.2751C276.994 49.3563 283.697 40.1222 293.961 41.4752C302.478 42.5985 308.995 49.5966 315.186 49.2027C323.051 48.7046 326.912 42.791 337.162 41Z" fill="#406787"/>
<path d="M223.414 112.832C225.243 112.568 230.277 112.471 232.369 112.369L232.37 147.225C226.49 147.129 206.639 145.863 208.363 155.827C209.488 157.231 210.543 158.056 212.153 158.822C215.22 160.279 218.496 160.857 221.866 161.049C239.932 162.077 424.173 161.675 428.554 159.938C431.141 158.912 432.952 157.561 434.181 155.007C433.219 145.25 416.845 146.939 410.017 147.071L410.004 112.332C425.885 113.01 437.117 115.739 451.12 123.548C501.714 151.764 490.333 216.914 490.219 267.002L489.768 425.491L489.574 504.464C489.606 536.872 493.634 556.297 477.151 585.593C476.044 587.386 474.325 589.744 473.057 591.478C460.872 607.871 442.698 618.78 422.501 621.825C411.361 623.448 396.201 622.872 384.639 622.802C366.999 622.678 349.359 622.646 331.721 622.704L262.403 622.863C249.956 622.892 229.567 623.536 217.977 621.652C205.998 619.599 194.68 614.717 184.967 607.41C167.219 593.905 155.646 573.831 152.854 551.705C151.082 538.134 151.971 501.618 151.988 486.626L152.04 364.482L152.024 243.007C152.025 224.574 150.572 199.443 152.79 181.703C157.464 144.337 187.579 117.731 223.414 112.832Z" fill="#A2D484"/>
<path d="M206.196 186.487C280.013 184.214 355.776 188.243 429.796 186.263C447.336 185.793 458.656 195.965 458.914 213.833C459.509 254.869 458.929 296.199 458.954 337.261C458.94 350.938 450.073 358.837 438.087 363.07C427.331 364.208 411.167 363.833 400.057 363.833L342.595 363.803L258.291 363.754C207.329 363.751 178.478 375.214 182.903 311.689C185.178 279.023 180.564 240.907 183.687 207.739C184.89 194.962 194.859 188.535 206.196 186.487Z" fill="#406787"/>
<path d="M206.486 200.464C278.07 197.827 351.904 202.223 423.679 200.245C430.372 200.061 443.425 200.98 443.905 208.608C445.903 240.32 444.504 274.947 444.454 306.685C444.43 322.23 449.964 342.717 435.1 349.027C384.969 350.122 330.912 349.009 280.455 349.023L233.159 349.187C224.749 349.226 199.823 351.093 198.651 343.223C194.726 316.891 197.93 279.103 197.146 251.84C196.729 237.332 196.971 230.758 196.648 217.546C196.423 208.328 199.348 203.808 206.486 200.464Z" fill="#88D2DE"/>
<path d="M392.011 385.553C402.033 384.953 428.711 383.794 437.192 387.779C443.028 390.508 447.462 395.549 449.426 401.685C454.74 417.843 448.885 434.752 431.517 439.429C413.591 440.22 378.834 445.78 373.325 423.566C369.065 406.385 373.949 390.469 392.011 385.553Z" fill="#406787"/>
<path d="M392.257 399.38C400.732 399.325 429.128 395.56 434.439 403.826C438.235 409.73 438.276 420.853 431.135 425.537C421.286 426.024 397.15 429.552 389.046 422.686C386.059 420.153 386.078 414.531 386.308 410.935C386.707 404.689 387.449 403.411 392.257 399.38Z" fill="#FEFEFE"/>
<path d="M208.029 452.676C216.284 452.06 225.195 452.213 233.502 452.019C239.578 451.878 247.901 451.701 253.622 453.527C269.845 458.703 272.931 480.02 266.555 493.654C263.091 501.06 258.961 503.381 251.877 506.343C242.024 506.963 215.396 508.455 206.762 505.437C200.917 503.402 196.147 499.085 193.538 493.474C186.351 477.828 191.706 459.801 208.029 452.676Z" fill="#406787"/>
<path d="M210.318 466.596C219.11 466.442 248.033 463.263 253.458 470.938C257.255 476.312 256.669 487.447 250.478 492.387C236.855 492.85 202.403 498.797 205.143 479.405C206.149 472.268 204.713 472.004 210.318 466.596Z" fill="#FEFEFE"/>
<path d="M211.297 385.695C219.186 385.29 229.714 385.84 237.608 385.199C264.516 383.012 275.629 403.773 266.45 427.547C263.949 434.022 257.816 437.516 250.966 439.376C221.881 442.765 179.191 445.281 193.592 398.914C195.964 391.276 203.923 387.262 211.297 385.695Z" fill="#406787"/>
<path d="M210.585 399.472C219.317 399.308 247.582 396.093 253.221 403.796C257.342 409.425 256.731 420.768 250.06 425.728C244.471 426.136 238.33 426.297 232.913 426.427C222.098 426.685 203.748 429.412 204.993 413.007C205.547 405.68 205.042 404.548 210.585 399.472Z" fill="#FEFEFE"/>
<path d="M389.77 452.713C405.614 451.537 441.542 447.596 448.088 464.768C454.372 481.256 450.593 498.561 433.717 505.981C425.571 507.162 395.582 507.728 388.396 505.483C382.352 503.593 377.382 499.248 374.699 493.513C367.128 477.561 373.34 459.845 389.77 452.713Z" fill="#406787"/>
<path d="M392.19 466.467C403.581 466.255 414.921 465.335 426.274 466.079C438.697 466.891 440.186 487.066 431.395 491.948C421.127 492.81 410.323 492.631 400.031 492.937C384.403 493.401 381.882 475.209 392.19 466.467Z" fill="#FEFEFE"/>
<path d="M301.297 385.713C329.169 383.333 369.852 380.324 358.214 425.092C356.161 432.991 348.81 437.309 341.358 439.454C329.879 440.109 305.075 442.241 295.381 437.657C289.572 434.955 285.172 429.928 283.261 423.813C277.922 407.049 283.634 390.831 301.297 385.713Z" fill="#406787"/>
<path d="M301.715 399.495C310.829 399.398 338.729 395.75 343.975 404.317C347.787 410.538 347.282 420.821 340.437 425.744C335.251 426.136 329.439 426.251 324.535 426.383C312.597 426.705 293.989 430.046 296.139 411.753C296.99 404.506 296.091 404.523 301.715 399.495Z" fill="#FEFEFE"/>
<path d="M299.465 452.664C311.472 451.993 332.7 450.802 343.983 453.469C357.142 456.581 362.55 475.021 359.374 486.923C356.509 497.665 353.303 501.535 343.122 506.189C334.952 507.118 305.958 507.666 298.852 505.728C292.834 504.033 287.762 499.967 284.796 494.463C281.092 487.472 280.792 475.611 283.51 468.313C286.947 459.082 291.1 456.394 299.465 452.664Z" fill="#406787"/>
<path d="M301.583 466.633C319.17 466.141 351.949 459.524 345.678 484.766C344.502 489.505 345.004 489.132 341.067 492.372C328.058 492.856 293.742 498.863 296.189 479.806C297.109 472.642 295.913 471.791 301.583 466.633Z" fill="#FEFEFE"/>
<path d="M394.078 518.85C421.689 517.244 459.713 513.004 448.34 558.473C446.342 566.462 438.454 570.941 430.799 572.777C404.437 573.086 359.612 580.658 374.887 531.555C377.266 523.903 386.675 520.242 394.078 518.85Z" fill="#406787"/>
<path d="M392.411 532.786C401.997 532.452 412.545 532.408 422.011 532.004C438.554 531.295 441.189 551.945 430.477 558.717L407.925 559.582C395.665 559.946 384.698 559.268 386.348 543.735C387.022 537.382 387.537 536.824 392.411 532.786Z" fill="#81B461"/>
<path d="M303.694 518.915C330.4 517.502 367.884 513.27 358.509 556.225C356.559 565.164 348.796 570.198 340.471 572.72C329.559 572.932 301.463 575.03 293.972 569.811C274.212 556.043 276.991 523.552 303.694 518.915Z" fill="#406787"/>
<path d="M301.708 532.715C310.365 532.334 334.842 529.829 342.198 535.312C348.064 539.685 346.37 552.655 341.091 558.526C332.904 558.657 303.298 561.882 298.168 554.571C293.869 548.444 295.554 538.387 301.708 532.715Z" fill="#FEFEFE"/>
<path d="M213.566 518.859C224.027 518.619 249.314 516.566 257.129 521.777C276.419 534.635 273.416 567.296 248.513 572.579C237.34 572.692 209.344 574.695 202.168 569.219C183.246 554.783 187.382 523.167 213.566 518.859Z" fill="#406787"/>
<path d="M212.106 532.737C222.829 532.572 233.494 531.703 244.182 532.564C257.698 533.653 259.215 552.936 248.46 558.657C239.18 558.546 228.9 558.885 219.565 559.196C202.999 559.75 199.857 540.538 212.106 532.737Z" fill="#FB8070"/>
<path d="M291.071 54.8725C298.379 56.2396 300.389 59.3182 306.867 62.3916C319.147 68.215 324.818 59.5125 335.282 55.8121C342.131 53.3358 348.765 60.5105 354.342 62.3774C376.203 69.6899 372.301 47.2086 395.704 59.9453C395.305 88.5786 395.766 118.33 395.722 147.075L362.225 147.09L247.057 147.087C247.036 116.013 246.393 84.774 246.609 53.7579C268.521 66.8691 268.558 66.6342 291.071 54.8725Z" fill="#FEFEFE"/>
<path d="M352.218 79.786C357.252 80.0103 358.181 79.7807 360.749 84.2759C361.231 93.5984 328.781 126.054 321.255 127.405C314.502 125.819 310.125 119.559 305.328 114.29C301.184 110.525 293.075 103.133 297.313 96.9896C306.208 93.0844 316.053 105.194 321.235 110.698C330.31 101.199 342.696 88.5115 352.218 79.786Z" fill="#406787"/>
<path d="M504.947 199.065C507.244 199.118 509.533 199.328 511.8 199.699C518.394 200.823 521.105 204.885 524.675 210.025C525.814 227.057 525.122 250.577 525.108 268.035L524.991 371.474L525.083 463.608C525.113 480.126 525.394 497.047 524.728 513.548C524.544 518.096 523.674 519.945 521.3 523.79C517.732 527.289 511.868 529.737 506.88 528.709C504.824 526.487 505.053 525.293 505.073 522.024C505.675 414.556 503.372 306.459 504.947 199.065Z" fill="#4EAACE"/>
</svg>
