<svg width="1247" height="1247" viewBox="0 0 1247 1247" fill="none" xmlns="http://www.w3.org/2000/svg">
<path d="M624.053 201.753C637.539 202.473 636.369 207.565 648.03 210.142C653.825 211.423 660.815 202.569 668.574 202.169C678.096 201.678 680.367 206.366 688.826 206.598C692.051 206.684 692.113 206.47 695.038 207.811C698.232 212.617 697.002 249.414 696.974 258.428C720.434 260.189 737.344 263.88 756.274 279.284C778.448 297.33 788.509 317.937 791.716 345.808C819.763 345.827 826.524 359.295 826.729 384.221L826.969 582.95L827.121 643.945C827.171 674.007 832.618 704.334 791.562 704.649C790.192 730.541 781.436 752.692 762.894 770.81C733.787 799.249 709.951 798.621 672.834 798.414C655.38 798.278 637.927 798.235 620.473 798.287L556.766 798.304C519.623 798.297 488.367 802.112 457.909 776.137C438.358 759.464 425.144 732.764 424.485 707.208C423.837 682.102 424.222 655.325 424.27 630.005L424.294 488.646L424.287 391.902C424.287 385.618 424.738 376.417 424.293 370.38C419.624 307.188 455.862 261.81 519.637 258.426C519.637 248.005 517.53 211.186 521.898 204.72C536.773 196.028 547.361 209.888 557.852 210.028C563.884 210.109 570.587 200.875 580.851 202.228C589.368 203.351 595.886 210.349 602.077 209.955C609.942 209.457 613.803 203.544 624.053 201.753Z" fill="#406787"/>
<path d="M510.304 273.584C512.134 273.321 517.168 273.224 519.259 273.121L519.261 307.977C513.381 307.882 493.53 306.615 495.254 316.579C496.379 317.983 497.433 318.808 499.044 319.575C502.11 321.032 505.387 321.609 508.757 321.802C526.822 322.83 711.064 322.427 715.444 320.691C718.032 319.665 719.843 318.314 721.072 315.759C720.109 306.002 703.736 307.691 696.907 307.824L696.895 273.084C712.776 273.762 724.007 276.491 738.011 284.3C788.604 312.517 777.224 377.666 777.109 427.755L776.659 586.244L776.464 665.216C776.496 697.624 780.525 717.05 764.042 746.345C762.935 748.138 761.216 750.496 759.948 752.231C747.762 768.624 729.589 779.532 709.391 782.577C698.251 784.2 683.091 783.625 671.529 783.554C653.889 783.43 636.249 783.399 618.611 783.457L549.293 783.616C536.846 783.644 516.458 784.289 504.868 782.404C492.889 780.352 481.57 775.47 471.857 768.163C454.11 754.658 442.537 734.584 439.744 712.457C437.973 698.887 438.861 662.371 438.879 647.378L438.93 525.234L438.914 403.76C438.916 385.327 437.462 360.196 439.681 342.455C444.354 305.089 474.47 278.484 510.304 273.584Z" fill="#A2D484"/>
<path d="M493.087 347.24C566.903 344.967 642.667 348.996 716.686 347.016C734.226 346.546 745.546 356.718 745.804 374.586C746.399 415.622 745.82 456.951 745.844 498.014C745.83 511.69 736.963 519.589 724.977 523.823C714.221 524.96 698.057 524.586 686.947 524.586L629.485 524.556L545.181 524.507C494.219 524.503 465.368 535.966 469.793 472.442C472.068 439.776 467.454 401.659 470.577 368.492C471.78 355.715 481.749 349.287 493.087 347.24Z" fill="#406787"/>
<path d="M493.377 361.217C564.961 358.58 638.796 362.976 710.571 360.998C717.263 360.814 730.316 361.732 730.796 369.361C732.794 401.073 731.395 435.699 731.346 467.438C731.321 482.983 736.855 503.47 721.991 509.779C671.861 510.874 617.803 509.762 567.346 509.776L520.05 509.94C511.64 509.979 486.715 511.846 485.542 503.975C481.617 477.643 484.821 439.855 484.037 412.593C483.62 398.084 483.862 391.51 483.539 378.298C483.314 369.08 486.239 364.56 493.377 361.217Z" fill="#88D2DE"/>
<path d="M678.901 546.306C688.923 545.706 715.601 544.547 724.082 548.532C729.918 551.261 734.352 556.301 736.316 562.438C741.631 578.596 735.775 595.504 718.407 600.181C700.481 600.973 665.724 606.533 660.215 584.318C655.955 567.138 660.839 551.222 678.901 546.306Z" fill="#406787"/>
<path d="M679.148 560.133C687.623 560.078 716.019 556.312 721.331 564.578C725.126 570.483 725.167 581.605 718.026 586.29C708.177 586.777 684.041 590.304 675.937 583.439C672.95 580.906 672.97 575.284 673.199 571.688C673.598 565.442 674.34 564.163 679.148 560.133Z" fill="#FEFEFE"/>
<path d="M494.919 613.429C503.175 612.812 512.086 612.966 520.393 612.772C526.469 612.63 534.791 612.454 540.512 614.28C556.736 619.455 559.822 640.772 553.445 654.406C549.982 661.813 545.852 664.133 538.767 667.096C528.915 667.716 502.286 669.208 493.653 666.189C487.808 664.155 483.037 659.838 480.429 654.226C473.242 638.581 478.597 620.554 494.919 613.429Z" fill="#406787"/>
<path d="M497.208 627.349C506.001 627.195 534.924 624.016 540.348 631.69C544.146 637.065 543.559 648.2 537.369 653.14C523.745 653.603 489.294 659.55 492.033 640.158C493.04 633.02 491.604 632.757 497.208 627.349Z" fill="#FEFEFE"/>
<path d="M498.188 546.447C506.076 546.043 516.605 546.592 524.499 545.951C551.406 543.764 562.52 564.525 553.34 588.3C550.839 594.775 544.707 598.269 537.857 600.128C508.772 603.518 466.082 606.033 480.483 559.666C482.855 552.029 490.814 548.014 498.188 546.447Z" fill="#406787"/>
<path d="M497.476 560.224C506.209 560.06 534.473 556.846 540.112 564.548C544.233 570.177 543.622 581.521 536.951 586.48C531.362 586.888 525.221 587.049 519.804 587.18C508.989 587.438 490.639 590.165 491.884 573.76C492.439 566.433 491.933 565.301 497.476 560.224Z" fill="#FEFEFE"/>
<path d="M676.661 613.466C692.505 612.289 728.433 608.349 734.979 625.521C741.263 642.009 737.483 659.313 720.608 666.733C712.462 667.915 682.472 668.48 675.287 666.235C669.243 664.345 664.272 660 661.589 654.265C654.019 638.314 660.231 620.598 676.661 613.466Z" fill="#406787"/>
<path d="M679.081 627.22C690.472 627.008 701.812 626.088 713.165 626.831C725.588 627.644 727.077 647.818 718.286 652.7C708.018 653.562 697.214 653.384 686.922 653.689C671.294 654.154 668.773 635.961 679.081 627.22Z" fill="#FEFEFE"/>
<path d="M588.187 546.465C616.059 544.086 656.742 541.076 645.104 585.845C643.052 593.743 635.701 598.062 628.249 600.206C616.769 600.862 591.966 602.993 582.272 598.41C576.463 595.707 572.063 590.681 570.152 584.566C564.812 567.802 570.525 551.584 588.187 546.465Z" fill="#406787"/>
<path d="M588.605 560.247C597.719 560.15 625.619 556.503 630.865 565.069C634.677 571.29 634.172 581.574 627.327 586.496C622.142 586.888 616.329 587.003 611.426 587.136C599.487 587.457 580.879 590.799 583.029 572.505C583.88 565.258 582.981 565.276 588.605 560.247Z" fill="#FEFEFE"/>
<path d="M586.356 613.416C598.363 612.745 619.59 611.555 630.873 614.222C644.032 617.334 649.44 635.774 646.265 647.675C643.4 658.418 640.194 662.288 630.013 666.942C621.842 667.871 592.849 668.419 585.743 666.481C579.725 664.785 574.652 660.719 571.687 655.216C567.983 648.225 567.683 636.364 570.401 629.066C573.838 619.835 577.991 617.147 586.356 613.416Z" fill="#406787"/>
<path d="M588.473 627.386C606.06 626.893 638.839 620.277 632.569 645.519C631.392 650.258 631.894 649.885 627.957 653.124C614.948 653.608 580.633 659.615 583.079 640.559C583.999 633.395 582.803 632.543 588.473 627.386Z" fill="#FEFEFE"/>
<path d="M680.969 679.603C708.579 677.997 746.604 673.756 735.231 719.226C733.233 727.215 725.345 731.694 717.69 733.529C691.328 733.838 646.503 741.41 661.778 692.308C664.157 684.656 673.566 680.994 680.969 679.603Z" fill="#406787"/>
<path d="M679.302 693.539C688.888 693.205 699.436 693.161 708.902 692.756C725.445 692.048 728.08 712.698 717.367 719.47L694.815 720.335C682.556 720.699 671.589 720.021 673.238 704.488C673.913 698.135 674.427 697.576 679.302 693.539Z" fill="#81B461"/>
<path d="M590.584 679.668C617.291 678.255 654.775 674.023 645.399 716.977C643.449 725.916 635.686 730.95 627.362 733.473C616.45 733.685 588.353 735.783 580.863 730.564C561.103 716.795 563.882 684.304 590.584 679.668Z" fill="#406787"/>
<path d="M588.598 693.468C597.255 693.086 621.732 690.582 629.088 696.064C634.954 700.438 633.26 713.408 627.981 719.279C619.794 719.409 590.188 722.635 585.058 715.324C580.759 709.197 582.444 699.139 588.598 693.468Z" fill="#FEFEFE"/>
<path d="M500.456 679.611C510.918 679.371 536.204 677.319 544.02 682.529C563.309 695.388 560.306 728.048 535.404 733.331C524.23 733.444 496.234 735.447 489.058 729.972C470.136 715.536 474.272 683.919 500.456 679.611Z" fill="#406787"/>
<path d="M498.996 693.489C509.72 693.325 520.384 692.456 531.072 693.316C544.588 694.406 546.105 713.688 535.35 719.409C526.07 719.298 515.79 719.637 506.456 719.948C489.89 720.503 486.747 701.291 498.996 693.489Z" fill="#FB8070"/>
<path d="M577.962 215.625C585.27 216.992 587.28 220.071 593.758 223.144C606.038 228.968 611.709 220.265 622.173 216.565C629.022 214.088 635.657 221.263 641.233 223.13C663.094 230.442 659.192 207.961 682.596 220.698C682.196 249.331 682.657 279.082 682.613 307.827L649.116 307.843L533.948 307.839C533.927 276.765 533.284 245.527 533.5 214.51C555.412 227.622 555.449 227.387 577.962 215.625Z" fill="#FEFEFE"/>
<path d="M639.108 240.539C644.142 240.763 645.071 240.533 647.639 245.028C648.122 254.351 615.671 286.806 608.145 288.158C601.393 286.572 597.016 280.312 592.219 275.043C588.075 271.277 579.966 263.885 584.203 257.742C593.098 253.837 602.944 265.947 608.126 271.45C617.201 261.951 629.586 249.264 639.108 240.539Z" fill="#406787"/>
<path d="M791.839 359.818C794.135 359.871 796.424 360.081 798.692 360.452C805.285 361.575 807.996 365.638 811.566 370.778C812.705 387.81 812.013 411.33 811.999 428.788L811.882 532.227L811.974 624.36C812.004 640.879 812.285 657.8 811.619 674.3C811.435 678.848 810.565 680.698 808.191 684.543C804.623 688.042 798.759 690.49 793.771 689.462C791.715 687.24 791.944 686.046 791.964 682.777C792.566 575.309 790.263 467.212 791.839 359.818Z" fill="#4EAACE"/>
<path d="M526.745 927.516C555.009 923.855 580.923 943.706 584.746 971.949C588.568 1000.19 568.862 1026.22 540.64 1030.2C512.194 1034.21 485.915 1014.31 482.063 985.844C478.209 957.377 498.256 931.21 526.745 927.516ZM531.405 946.927C493.816 953.087 498.682 1012.05 535.928 1011C571.051 1003.37 569.786 948.551 531.405 946.927Z" fill="#4EAACE"/>
<path d="M201.479 893.695C202.267 893.601 203.054 893.52 203.846 893.451C225.769 891.626 218.541 933.674 218.674 949.511L281.52 949.433C281.778 934.92 280.176 919.179 282.02 904.854C282.513 901.025 283.703 897.474 287.093 895.247C290.115 893.26 293.407 892.988 296.844 893.901C299.84 894.698 302.987 896.552 304.355 899.453C306.76 904.559 306.94 1016.77 304.927 1022.57C303.45 1026.81 299.566 1028.58 295.742 1030.21C277.919 1028.6 281.663 1012.88 281.476 999.167C281.342 989.452 281.661 979.598 281.652 969.85L219.009 970.044C218.628 982.101 219.209 994.177 219.11 1006.2C218.73 1013.14 220.436 1021.78 214.783 1027.01C208.809 1032.54 195.23 1029.07 195.051 1020.47C194.23 981.211 194.375 941.566 194.977 902.288C195.039 898.169 198.522 896.153 201.479 893.695Z" fill="#4EAACE"/>
<path d="M630.335 956.993C638.758 948.873 690.512 894.541 697.201 893.576C700.513 893.099 704.42 893.944 706.976 896.21C709.046 898.047 709.892 899.831 710.074 902.591C710.782 913.362 676.878 941.734 667.9 950.182C679.162 966.997 695.472 988.733 708.021 1004.52C713.409 1011.71 722.221 1026.51 703.692 1030.2C699.822 1030.17 694.294 1026.4 692.134 1023.83C677.143 1006.01 664.811 984.982 650.181 966.932C643.486 973.531 636.374 979.361 630.155 986.442C630.218 996.353 633.124 1022.45 626.043 1027.13C615.756 1033.93 606.938 1027.28 606.923 1015.14C606.875 977.019 606.103 939.878 607.071 901.901C607.166 898.188 611.499 895.404 614.136 893.622C618.485 893.362 623.204 893.393 626.535 896.63C632.629 902.551 630.299 946.215 630.335 956.993Z" fill="#A2D484"/>
<path fill-rule="evenodd" clip-rule="evenodd" d="M765.437 928.305C821.951 922.919 817.302 957.573 817.023 999.188C816.99 1004.09 820.828 1016.7 819.058 1021.09C812.308 1037.82 799.902 1029.36 795.426 1015.89C778.2 1031.19 756.243 1036.26 736.847 1021.59C732.702 1016.93 729.825 1012.76 728.759 1006.46C722.609 970.109 769.869 969.968 794.362 967.723C788.424 924.192 753.166 959.468 738.186 956.799C735.91 955.107 735.056 954.786 734.51 951.736C731.701 936.018 753.888 930.369 765.437 928.305ZM793.977 982.887C791.996 982.991 786.708 983.129 784.95 983.417C776.315 984.159 759.72 984.727 754.51 992.108C747.745 1001.69 753.538 1009.63 762.816 1013.17C786.484 1014.29 793.216 1006.18 793.949 983.766L793.977 982.887Z" fill="#A2D484"/>
<path d="M365.11 928.331C416.843 922.063 416.449 955.334 414.352 993.366C413.981 1000.11 420.935 1023.7 413.296 1027.77C401.397 1034.1 396.688 1023.65 393.934 1014.77C378.385 1030.99 352.654 1036.89 334.65 1021.04C330.962 1016.97 328.445 1012.85 327.558 1007.32C321.569 969.922 367.838 970.245 392.866 967.067C390.19 948.629 384.32 942.107 363.919 947.241C355.302 949.41 344.748 959.739 335.798 956.417C331.755 952.833 331.642 945.902 334.875 941.803C341.798 933.017 354.634 930.187 365.11 928.331ZM391.474 983.111C389.803 982.288 390.576 982.35 389.227 982.507C376.967 983.353 360.181 983.629 351.349 993.303C345.879 999.294 351.308 1007.3 356.247 1011.54C372.191 1016.61 382.491 1011.52 391.271 997.846C391.545 993.577 392.297 987.093 391.474 983.111Z" fill="#4EAACE"/>
<path d="M869.579 927.446C876.088 927.054 922.253 930.993 909.725 950.926C903.725 960.473 871.995 935.195 862.076 948.525C859.545 951.926 858.985 952.362 859.377 956.64C866.483 971.512 913.99 968.401 915.333 996.676C916.492 1021.06 899.88 1028.16 878.942 1030.18C864.552 1031.02 835.908 1025.19 834.301 1008.79C836.143 995.484 857.383 1006.45 861.814 1008.76C884.333 1020.48 913.09 999.186 875.84 989.048C851.515 982.429 825.282 969.567 843.037 939.448C847.606 931.698 861.45 928.48 869.579 927.446Z" fill="#A2D484"/>
<path d="M1028.87 927.303C1045.48 926.018 1067.16 933.844 1047.31 950.631C1041.33 950.447 1031.64 948.186 1026.6 949.253C995.719 955.785 1015.96 1007.5 1005.34 1025.86C1003.4 1029.22 998.725 1029.81 995.11 1030.33C991.467 1028.69 986.253 1026.04 986.01 1021.59C984.715 997.722 986.244 977.692 985.443 953.362C985.192 945.789 983.108 919.95 1003.16 930.804C1007.37 933.086 1007.3 942.437 1007.5 947.51C1014.4 936.114 1016.09 932.263 1028.87 927.303Z" fill="#A2D484"/>
<path d="M448.46 888.042C459.547 888.869 462.194 892.223 462.544 903.217C462.837 912.47 462.964 921.718 462.918 930.981C462.774 960.589 463.761 990.307 462.844 1019.89C462.708 1024.28 459.232 1027.11 456.109 1029.49C448.355 1029.96 440.575 1029.38 440.358 1019.21C439.642 985.531 440.232 951.763 439.888 918.062C439.817 911.098 439.713 903.904 440.374 897.043C440.79 892.716 445.418 890.104 448.46 888.042Z" fill="#4EAACE"/>
<path d="M942.053 929.135C947.686 928.312 957.616 928.822 958.119 936.359C959.949 963.783 958.561 991.665 958.925 1019.18C958.988 1024.03 955.722 1026.64 952.331 1029.47C945.72 1030.27 942.47 1030.34 937.697 1025.49C934.871 1017.23 936.374 949.656 936.279 936.884C936.251 933.309 939.333 931.313 942.053 929.135Z" fill="#A2D484"/>
<path d="M946.884 888.91C953.975 888.615 959.976 894.096 960.32 901.184C960.664 908.272 955.224 914.311 948.138 914.705C940.983 915.102 934.871 909.596 934.523 902.438C934.175 895.281 939.723 889.208 946.884 888.91Z" fill="#A2D484"/>
</svg>
